<svg width="75" height="70" fill="none" xmlns="http://www.w3.org/2000/svg"><path fill-rule="evenodd" clip-rule="evenodd" d="M8.97802 31.544H69.855c.041-.619.069-1.241.069-1.87 0-.3928-.0159-.7806-.0318-1.1694v-.0001l-.0002-.0035C69.227 12.657 55.186 0 37.952 0 20.719 0 6.67702 12.657 6.01302 28.501c-.017.39-.032.78-.032 1.173 0 .629.028 1.251.07 1.87h2.927zM21.957 42.465l-5.323-4.059-5.326 4.059-6.18798-4.714 1.721-2.457 4.46698 3.401 5.327-4.057 5.323 4.057 5.325-4.057 5.328 4.057 5.328-4.057 5.328 4.057 5.329-4.057 5.327 4.057 5.33-4.056 5.336 4.057 4.474-3.403 1.72 2.459-6.194 4.712-5.336-4.059-5.33 4.06-5.327-4.059-5.329 4.059-5.328-4.059-5.328 4.059-5.328-4.059-5.326 4.059zM5.05102 46.71H70.854c2.274 0 4.134 1.94 4.134 4.313v3.504c0 2.372-1.861 4.313-4.135 4.313h-.93v1.053c0 5.536-4.342 10.065-9.648 10.065H15.629c-5.307 0-9.64798-4.529-9.64798-10.065V58.84h-.93c-2.274 0-4.135004-1.941-4.135004-4.313v-3.504c0-2.373 1.861004-4.313 4.135004-4.313zM60.276 66.915c3.711 0 6.73-3.15 6.73-7.021h-.001v-1.053H8.89802v1.053c0 3.871 3.01998 7.021 6.73098 7.021h44.647zm11.795-12.388c0 .688-.558 1.271-1.218 1.271H5.05102c-.66 0-1.217-.582-1.217-1.271v-3.504c0-.688.558-1.271 1.217-1.271H70.853c.66 0 1.218.582 1.218 1.271v3.504zm-5.098-26.026c-.671-14.142-13.43-25.458-29.021-25.458-15.591 0-28.34798 11.316-29.02098 25.458H66.973z" fill="#81B3D2"/></svg>