<svg width="75" height="72" fill="none" xmlns="http://www.w3.org/2000/svg"><path fill-rule="evenodd" clip-rule="evenodd" d="M45.656 65.033h-16V41.21h16v23.823zm-2.938-20.899H32.593V62.11h10.125V44.134z" fill="#81B3D2"/><path fill-rule="evenodd" clip-rule="evenodd" d="M72.7711 39.253l2.076-2.068-9.908-9.865V0h-13.812v13.567L37.5001 0 .1521 37.185l2.077 2.068 7.832-7.795v37.618h-3.937V72h63.875v-2.924h-5.059V31.458l7.831 7.795zm-10.769 29.823h-49.003V28.534l24.501-24.385 24.502 24.385v40.542zm-7.938-52.584l7.938 7.902V2.924h-7.938v13.568z" fill="#81B3D2"/><path fill-rule="evenodd" clip-rule="evenodd" d="M37.656 34.7929c-4.28 0-7.75-3.452-7.75-7.713 0-4.259 3.469-7.713 7.75-7.713 4.279 0 7.75 3.454 7.75 7.713 0 4.261-3.471 7.713-7.75 7.713zm4.969-7.713c0-2.731-2.225-4.945-4.969-4.945-2.745 0-4.97 2.214-4.97 4.945 0 2.732 2.224 4.948 4.97 4.948 2.744 0 4.969-2.216 4.969-4.948zm-25.564 14.13h3v3.919h-3v-3.919zm8.938 0h-3v3.919h3v-3.919zm-8.938 5.972h3v3.919h-3v-3.919zm8.938 0h-3v3.919h3v-3.919zm22.999-5.972h3v3.919h-3v-3.919zm8.938 0h-3v3.919h3v-3.919zm-8.938 5.972h3v3.919h-3v-3.919zm8.938 0h-3v3.919h3v-3.919z" fill="#81B3D2"/></svg>