<svg width="138" height="70" fill="none" xmlns="http://www.w3.org/2000/svg"><path d="M138 0H0l59.51 65.68c5.22 5.761 13.76 5.761 18.98 0L138 0z" fill="#81B3D3"/><path d="M36.687.457l32.148 37.879 32.02-37.65L36.687.457z" fill="#23A9E1"/><path fill-rule="evenodd" clip-rule="evenodd" d="M78.4201 14.719h-17.32c-.2806-.1272-.6617-.2698-1.088-.4294-2.1978-.8226-5.6006-2.0962-2.665-4.0376 1.4696-.93341 2.5247-.78364 3.5219-.64207 1.0894.15464 2.1097.29948 3.5261-.98793 2.5795-2.34072 6.2748 1.2875 7.5402 2.5299.2608.256.4183.4107.4418.3911 1.2495-1.0408 3.2536.7613 4.7337 2.0922.5194.467.9742.876 1.3093 1.0838zm9.41-3.478l-9.86.054c3.896-4.5 5.647-4.018 9.86-.054z" fill="#fff"/><path fill-rule="evenodd" clip-rule="evenodd" d="M36 .001h33.055L102 0v15.04L69.056 54.245l-.22.275L36 14.583V.001zm4.011 1.152V3.06l-1.604-1.906 1.604-.001zm57.611.001v2.434l2.08-2.434h-2.08zM48.467 13.081l-.09-.083.8193.9734-.0003.0006 19.638 23.33-19.6377-23.3306c2.655-4.54246 6.4569-5.22219 10.5467-.3074.654.8175 1.0508 1.5608 1.369 2.1568.4506.8441.7436 1.3929 1.386 1.4392 1.1387.0814 1.6987-.6742 2.2556-1.4256.4422-.5968.8826-1.191 1.6094-1.3614 1.4212-.334 2.0758.0247 2.7187.377.2039.1118.4067.2229.6323.311.2822.1104.5459.1802.79.2448.627.166 1.1246.2977 1.473.9952.1161.232.2131.4642.3078.6909.4199 1.0055.7949 1.9034 2.5942 2.2021 2.5483.424 4.7027-.5283 6.9443-1.5193 1.607-.7103 3.2588-1.4405 5.1327-1.6977l2.515-2.945c-.105-.11-2.467-2.54-6.132-4.95-3.429-2.255-8.728-4.949-14.506-4.977-5.791-.032-11.016 2.653-14.383 4.912-3.5431 2.3773-5.8155 4.7864-5.9743 4.9548l-.0087.0092zM97.114 1.153h-3.227V7.96l3.227-3.777v-3.03zM89.832 12.61V1.154h3.546v7.404l-3.5 4.098c-.0148-.0158-.0302-.0312-.046-.046zm-.508-.495V2.221l-3.557 6.908c1.2411.9274 2.4286 1.9243 3.557 2.986zM85.159 1.863v6.819c-.463-.334-.95-.673-1.465-1.012-.664-.438-1.4-.892-2.194-1.34l3.659-4.467zM80.847 5.97V1.73l-3.12 2.766c1.0651.4363 2.1066.92831 3.12 1.474zm.508-4.816h3.727l-3.727 4.55v-4.55zm7.945 0h-3.633l-.001 7.06 3.634-7.06zm-12.43 0h3.86L77.2 4.282c-.0654-.0252-.1319-.04932-.1983-.07343-.0444-.01609-.0887-.03217-.1327-.04857V1.154h.001zm-.509 2.82V1.571l-3.1 1.516c1.0507.23106 2.0861.5273 3.1.887zm-4.203-2.361v1.26c-.7216-.12109-1.4488-.2052-2.179-.252l2.179-1.008zM67.64 2.616l-2.248-1.042v1.295c.736-.123 1.486-.21 2.248-.253zm-6.368-1.045l3.065 1.498c-1.06.229-2.083.528-3.066.875l.001-2.373zm.306-.417l3.304 1.617.001-1.617h-3.305zm6.87 1.275l-2.754-1.275h2.754v1.275zm3.49-1.275h-2.881v1.334l2.881-1.334zm.878 0h3.24l-3.24 1.584V1.154zm-15.921.001l3.51 3.11.359-.135V1.155h-3.869zm-.108.583l3.093 2.741c-1.0573.43973-2.0898.9368-3.093 1.489v-4.23zm-.672 4.608l-3.64-4.48v6.89c1.1633-.87645 2.3789-1.68127 3.64-2.41zM48.31 2.224l3.586 6.974c-1.2606.9737-2.4583 2.0261-3.586 3.151V2.224zm.022-1.07l3.634 7.07v-7.07h-3.634zm7.946 4.585l-3.726-4.585h3.726v4.585zM40.52 3.664l3.227 3.833V1.154H40.52v2.51zm3.735-2.51H47.8v11.16l-3.546-4.212.001-6.948z" fill="#491213"/><path d="M66.2271 46.026l2.61-4.22 2.598 4.22-2.598 4.23-2.61-4.23z" fill="#23A9E1"/><path fill-rule="evenodd" clip-rule="evenodd" d="M52.8799 11.718c-1.783.554-2.881 3.012-.257 3.121h.001c-.108-1.668.366-2.374.512-.348.4327-.02.882-.0319 1.3387-.0441 1.6419-.0435 3.3808-.0897 4.7953-.5239-1.14-1.091-4.695-2.733-6.39-2.205zm5.913 11.267c-5.596-.046-1.813-8.648.091-8.128 2.19.696 1.944 8.194-.091 8.128zm2.54-2.855c-.11 1.972.878 1.669 1.423.045v-.001c.0033.3588-.0361.7204-.0746 1.0728-.1021.9363-.1972 1.8087.5336 2.3972 1.324 1.069 3.865-.397 4.696-1.492-1.597-.62.348-4.387 1.546-4.961-1.232 2.581-2.652 6.426.568 6.426-1.632 0 1.302-6.746 1.318-6.692-.1861-.6169-.6486-.6835-1.2009-.763-.4091-.0588-.8675-.1248-1.2991-.427-1.582-1.1072-2.4087-.1541-3.2118.772-.3503.4038-.6961.8025-1.0982 1.023-.4801.2628-.9503.3967-1.3764.518-.986.2808-1.7356.4942-1.8236 2.082zm12.885 10.426c-3.433-2.02-2.564-3.523.23-4.925.3603-.1809.8316-.4778 1.358-.8094 1.6101-1.0144 3.7358-2.3535 4.775-1.6896l-6.363 7.424zm-3.5438 2.4485h-.0003c-1.7066-.1052-3.4937-.2152-5.0519.1235 1.207.302 4.151 1.165 1.41 1.894.983 1.407 2.578 1.317 3.624.082-.2559-.1259-.4411-.2691-.6248-.4112-.1214-.0939-.2421-.1873-.3822-.2748 1.085-.196 2.1-.822 2.235-1.345-.3958-.0184-.8005-.0433-1.2098-.0685zm-.3012-1.5055c.869-.84 1.813-.796 2.746 0h-.001c-.474 1.382-9.059.894-10.124-1.72.5244.0792 1.2071.0872 1.9492.0958 2.0585.0241 4.5735.0534 5.4298 1.6242zm-4.028-2.151c-.4506-.1397-1.209-.2291-1.978-.3197-1.9013-.2242-3.8679-.4561-1.41-1.4743 1.065-.441 6.593.063 3.388 1.794zm1.912-3.03c-.477-1.077.365-2.36 1.74-1.428 1.199.813-.552 2.017-1.74 1.428zm-2.836.091c-2.265.679-5.273-.784-1.63-1.52 2.261-.456 4.666.506 1.63 1.52z" fill="#DC6243"/><path d="M71.7741 25.832c-2.908-2.987 4.342-2.712 5.51-3.763.85.284 6.99-5.377 8.485-5.025-1.074 1.26-3.388 5.282-5.047 5.282-1.275 0-2.565-.19-3.552.718-1.444 1.33-3.837 2.006-5.396 2.788z" fill="#F49774"/><path d="M72.727 22.18c-1.592.856-3.098-2.536-.349-2.206 1.826.22 3.676-.154 5.42.147-1.251 1.487-3.056 2.306-5.071 2.059z" fill="#F4B1A4"/><path fill-rule="evenodd" clip-rule="evenodd" d="M39.265 14.483c.361 1.219 1.584 1.666 2.731 1.326.0362.0403.0588.1026.0801.1609.0099.0271.0194.0533.0299.0761-.0997.0383-.2837.1176-.5038.2125-.6127.264-1.5042.6481-1.6292.6025-.217-.4327-.5583-.7524-.9017-1.0741-.2392-.2241-.4794-.4491-.6793-.7139-.566-.748-.897-1.651-.808-2.597.142-1.745 1.898-3.669 3.762-3.405.92.133 1.688.787 2.26 1.483.1624.1893.3037.3878.4431.5837.2965.4167.5846.8214 1.0499 1.1003-.558.712-1.116 1.422-1.676 2.133-.3305-.1461-.2301-.374-.1202-.6231.0307-.0698.0622-.1412.0852-.2129.163-.517.285-1.105.061-1.625-.51-1.174-1.905-1.214-2.84-.544-.946.678-1.697 1.926-1.344 3.117zm8.425 1.921c.1167-.0252.2054.0167.2843.054.115.0543.2089.0987.3377-.09l-1.59-1.894c-.241-.287-.546-.595-.459.012.058.409-3.969 3.677-4.215 3.778-.1349.0557-.2455.0118-.3462-.0281-.1309-.0518-.245-.0971-.3738.0911.2008.2385.4013.4772.6018.7159l.0004.0004.0015.0018.0005.0006.0008.001.0001.0001.0002.0001.0001.0002.0001.0001.0001.0001.0001.0002.0001.0001.0004.0005.0002.0002.0001.0001.0001.0001.0001.0002.0001.0001c.272.3238.5441.6477.8172.9712.0515.0612.1019.1241.1524.1872.1063.1329.2132.2665.3326.3858.1888.1888.1529-.2684.1453-.3657v-.0001c-.0013-.016-.0018-.0223-.0003-.0142-.0534-.2962.2588-.5529.4783-.7334h.0001c.0272-.0224.053-.0436.0766-.0636 1.004-.884 3.505-2.979 3.753-3.012zm3.423 4.531c.333.401.578.834.523 1.374-.013.1277-.0876.2852-.1632.4449-.1464.3091-.2967.6265-.0118.7531l1.455-1.84c-.39-.098-3.482-3.796-3.532-4.201l-2.051 1.126c.0699.2831.4133.1939.7431.1082.17-.0442.3364-.0874.4599-.0782.538.038.926.363 1.268.747-.1056.0886-.2254.1894-.3561.2994l-.0043.0036-.0006.0004v.0001h-.0001c-1.2577 1.058-3.5164 2.9581-3.7769 3.0015-.048.0076-.1406-.0319-.2436-.0758-.2107-.0899-.4651-.1983-.4704.0388-.003.1253.2988.4239.5002.6231l.0001.0001c.0718.071.1308.1294.1587.1628l1.447 1.722c.2198-.1003.1769-.2335.1271-.388-.041-.1273-.0867-.2691.0059-.419.1191-.193 2.0547-1.826 3.2179-2.8074l.0001-.0001.0006-.0005c.3014-.2543.5509-.4647.7034-.595zm13.8485 15.5806l-.0002-.0002c-.1946-.2517-.3445-.4457-.4223-.5384l-.213-.253c-.007-.01-.185.145-.16.124-.0535.0448-.0364.1315-.0169.2303.0214.1084.0456.2314-.0171.3297-.515.806-3.738 3.236-3.905 3.352-.1738.1207-.356.1008-.5217.0828-.1776-.0193-.3362-.0366-.4453.1232.139.165.3553.4357.5947.7352.5643.7061 1.2564 1.5722 1.3653 1.5898.2169.0349.1779-.2368.148-.4447-.0129-.0902-.0241-.1683-.012-.2043.0751-.2255 1.519-1.4295 2.1858-1.9854l.1182-.0986c.1857-.1559.3794.1541.513.3681h.0001c.0232.0372.0446.0715.0639.0999.212.315.307.65.193 1.019-.0223.0713-.0724.153-.1239.2369-.1217.1983-.2511.4091-.0381.5251.1708-.1998.4734-.5528.7774-.9074l.0066-.0077.0032-.0037.0047-.0055c.4064-.474.8114-.9466.9041-1.0557.1209-.1401-.136-.0861-.254-.0613h-.0001c-.0421.0088-.0665.014-.0499.0053-.24.124-.466.153-.69-.018-.063-.047-.707-.702-.643-.757.0655-.055.1344-.1185.2063-.1846.2352-.2164.5011-.4612.7777-.5294.56-.138 1.027.984 1.11 1.382.078.375.067.77-.05 1.136-.0201.0631-.0501.1229-.0785.1797-.0845.1692-.1552.3105.0905.4243l1.383-1.896c-.0904.0046-.18-.0173-.258-.063-.5837-.3899-1.8507-2.029-2.5465-2.9294zM56.304 31.317c.5551-.4724 1.2492-.7508 1.977-.793 1.158-.066 2.332.464 3.09 1.474 1.112 1.484.93 3.561-.5 4.766-1.685 1.201-3.767 1.008-5.059-.694-1.124-1.478-.938-3.55.492-4.753zm3.167.593c.949-.108 1.503.799 1.099 1.768-.42.98-1.43 1.989-2.424 2.38-1.18.465-2.011-.537-1.531-1.657.422-.984 1.43-1.983 2.426-2.38.15-.059.294-.095.43-.11v-.001zm-2.4967-4.5391c-.0928-.0388-.1888-.0789-.2863-.0909v-.001c-.6958-.0832-1.4788.0622-2.2176.1994-.2828.0525-.559.1038-.8214.1406-.647.091-2.172 1.576-2.27 1.856-.0105.0388.0106.1265.035.2274.0547.2266.1255.5201-.109.4786-.0792-.0148-.2691-.2729-.3957-.4449v-.0001l-.0001-.0001c-.0444-.0603-.081-.11-.1022-.1349l-1.617-1.92c.1432-.2029.2641-.1339.4037-.0542.1108.0632.2334.1332.3883.0792.2662-.0934 1.1782-.8707 1.6097-1.2385l.0005-.0004.0021-.0019c.0569-.0484.1053-.0897.1427-.1212.5538-.4658 1.0406-2.173 1.1999-2.7313.0253-.0889.0424-.1487.0501-.1697.061-.17.082-1.145.058-1.125.2105-.1737.355.0395.5013.2555.0441.0651.0884.1304.1347.1855l1.78 2.112c-.1322.1899-.2543.1343-.389.073-.1293-.0588-.2702-.123-.443.019-.1586.1309-.5399 1.2291-.7129 1.7273l-.0391.1127c.0382-.0068.0866-.015.1429-.0246.5325-.0908 1.7762-.3029 1.9191-.5534.0674-.1184.028-.2196-.0074-.3104-.0464-.1194-.0859-.2208.1334-.3196l1.447 1.712c-.1524.2248-.3375.1475-.5377.0639zM80.927 34.049c.124.421.194.865.14 1.305-.07.566-.636 1.898-1.411 1.519-.5344-.2623-1.0219-.7105-1.4884-1.1394-.197-.1811-.3902-.3588-.5816-.5176.5199-.608.9779-1.135 1.8529-.84.2401.08.4461-.024.194-.17-.0499-.0291-.1538-.0931-.2901-.1771-.5811-.3582-1.7499-1.0786-1.8268-.9919-.0796.0918-.016.2167.0583.3625.0892.175.1937.3801.0847.5945-.1148.2249-.2898.4258-.4601.6213-.0492.0565-.0981.1126-.1449.1687-.0683-.0576-.1433-.1157-.2197-.175l-.0002-.0001-.0002-.0002c-.4468-.3463-.9455-.733-.465-1.2887.3521-.428.8111-.76 1.361-.87.1295-.0264.3158-.003.5075.021.3533.0443.7252.091.7946-.167-.423-.204-.846-.4069-1.269-.6098-.282-.1353-.564-.2706-.846-.4062.0923.4176-1.3654 2.0589-2.206 3.0055-.2061.232-.3751.4222-.475.5425-.0194.023-.0579.0611-.1043.107-.1307.1291-.3238.32-.3267.41-.0055.2518.3294.0984.4105.0612h.0001c.0084-.0038.0141-.0064.0164-.0072.315-.116 4.424 3.317 4.5259 3.552.0308.086.0003.1741-.0273.2538-.0308.0889-.058.1674.0074.2212-.0004-.0003-.0002-.0002.0004.0004l.0025.0022c.0214.0197.1468.1353.1621.1174.0424-.0509.153-.1938.3105-.3971v-.0001c.7821-1.0096 2.7181-3.509 3.1785-3.6388-.517-.7876-1.0294-1.5783-1.5371-2.372-.2866.1258-.1514.4084-.0296.6629.0409.0856.0803.1679.1017.2401zm-7.7158 5.1919c.7212-.4461 2.5618-1.5847 3.7158-.8399 1.132.942.885 2.48.132 3.58-.361.525-.817.964-1.294 1.383l-.0313.0262c-.3502.2934-.6087.5099-.6747.9888l-2.26-1.647c.1126-.2955.3381-.1689.5606-.044.0818.0459.1631.0916.2384.116.391.129.816.165 1.216.059.684-.182 1.377-.823 1.56-1.519.228-.865-.621-1.127-1.267-.824-.3111.1459-.6078.3414-.9005.5341-.1166.0769-.2326.1532-.3485.2259-.653.407-1.421.715-2.158.331-.648-.336-1.089-.99-1.089-1.726 0-.797.453-1.495.987-2.05.1241-.1286.2742-.2551.4287-.3853.4029-.3395.8361-.7046.9193-1.1997.555.376 1.11.751 1.667 1.126.092.0629.0758.084.0253.1496l-.0001.0001c-.0153.0199-.0337.0438-.0532.0743-.0473.0738-.3703.0375-.6345.0079-.1331-.015-.2512-.0283-.3115-.0249-.596.036-1.196.297-1.5.837-.35.622.137 1.294.812.975.0493-.0236.1389-.079.2602-.1541zM94.544 10.336c-.0351.016-.0655.0408-.088.072l-.79.95-.814.982c-.0281.0341-.0565.065-.0829.0937v.0001c-.1315.1432-.212.2308.0579.3732.543-.272 3.518 4.768 3.252 5.492-.47.244-4.49-3.283-4.598-3.516-.0094-.0269.0009-.0919.0132-.17.0312-.1971.0757-.4781-.1492-.443-.1104.017-.3229.3288-.4638.5356l-.0001.0001-.0002.0003c-.0492.0722-.0896.1315-.1139.161l-.577.695c.1308.1908.2264.1457.3453.0895.0773-.0365.1645-.0777.2777-.0615.2281.0458 1.0438.7329 1.3774 1.0139l.0001.0001.0785.066c-.1566.0057-.4022.0171-.6662.0294-.5286.0246-1.1308.0526-1.2388.0446-.3359.0418-.3771-.1058-.4236-.2723-.0346-.124-.0721-.2584-.2364-.3327l-1.478 1.795-.86 1.043c-.0042.005-.0078.009-.0108.0125-.0076.0087-.0115.013-.011.0168.0005.0038.0052.0071.0145.0135.0087.006.0213.0148.0383.0292.03.0247.053.0447.0711.0604.0397.0345.0561.0487.0724.0487.0115-.0001.023-.0071.0426-.0192.0307-.019.0815-.0503.1839-.0859.328-.115 4.256 3.2 4.398 3.369.1117.1332.1007.2766.0906.4083-.012.1571-.0228.2977.1774.3847l1.168-1.418c.0125-.0153.0239-.0271.0332-.0368.0344-.0358.0411-.0428-.0202-.0932-.153-.1259-.2312-.0707-.3281-.0024-.0785.0554-.1692.1194-.3219.1024-.2994-.0493-2.2176-1.6494-3.3596-2.602l-.0012-.001-.0042-.0036-.0015-.0012-.0061-.0051c-.1728-.1441-.3274-.2731-.4554-.3791l5.322-.197c.195-.007.74.581.695.79-.016.0747-.0503.1375-.0808.1931-.069.126-.1177.215.1148.3219.1233-.1484.2495-.2964.3759-.4447l.0001-.0001h.0001v-.0001l.0001-.0001.0001-.0001c.1921-.2254.3847-.4514.5687-.6799l.148-.184c.0576-.0461.1038-.105.135-.172l.11-.137c.0265-.0303.0587-.0668.0953-.1082l.0024-.0027.0001-.0002c.3438-.3893 1.0606-1.2011.9642-1.2849-.14-.1213-.2464-.0637-.3606-.0019-.1305.0706-.2711.1467-.4834-.0331-.2055-.1473-.6929-.9856-.8864-1.3185l-.0486-.0835c-.1535-.2605.2805-.5203.5399-.6755.0314-.0187.0602-.036.0851-.0515.504-.313 2.107-.767 2.26.227.0107.072-.0207.1483-.0502.2198-.0388.0943-.0742.1803-.0048.2372.0053.0045.0133.013.0232.0233.0423.0441.1179.123.1528.0817l2.142-2.576c-.02-.0169-.041-.0381-.063-.0599-.046-.0466-.096-.0964-.147-.1161-.474.473-5.466-1.52-5.83-1.795-.0763-.0303-.1231-.1749-.1688-.3164-.0537-.1662-.106-.3281-.2032-.2946zm2.062 3.513c-.761-.322-1.523-.642-2.287-.96l1.016 1.748c.1886-.1867.3968-.3527.621-.495h.002c.201-.127.418-.229.648-.293zm-8.875 6.793c-1.107-.076-2.23.41-3.023 1.317-1.235 1.5-1.112 3.678.393 4.945 1.518 1.25 3.68.932 4.916-.55 1.232-1.496 1.147-3.68-.385-4.934-.5346-.4546-1.2001-.7272-1.9-.778h-.001zm.293 2.262c-.432-.289-1.12-.665-1.742-.703-.373-.023-.723.077-.98.391-.815.996.462 2.126 1.207 2.664.744.537 2.124 1.314 2.924.474.0064-.0055.0124-.0115.018-.018.133-.167.098-.128.05-.07.737-1.051-.697-2.217-1.477-2.738zm-4.869 3.577c-1.214-.067-2.403.496-3.299 1.576-.5237.6289-1.0461 1.2591-1.5682 1.8891l-.3538.4269c.1234.1798.2583.142.4087.0999.1274-.0357.266-.0745.4183.0131.283.163 4.053 3.312 4.115 3.485.0464.1302.0205.2146-.0016.2863-.0282.0918-.0499.1626.0956.2817.111.093 2.944-3.405 3.203-4.02.448-1.139.091-2.387-.82-3.175.073.06.177.145-.042-.037-.69-.518-1.427-.787-2.156-.827v.001zm-.787 1.617c-.0821-.021-.171-.034-.266-.037v-.001c-.661-.025-1.582.358-2.057.879-.159.175 3.822 3.399 4.02 3.209.1826-.1754.2564-.2389.297-.2738.049-.0421.0497-.0427.135-.1482 1.2549-1.513-.707-3.265-2.129-3.628z" fill="#fff"/></svg>